<?xml version="1.0" encoding="UTF-8"?>
<svg width="200" height="40" viewBox="0 0 200 40" fill="none" xmlns="http://www.w3.org/2000/svg">
  <path d="M20 0C8.9543 0 0 8.9543 0 20C0 31.0457 8.9543 40 20 40C31.0457 40 40 31.0457 40 20C40 8.9543 31.0457 0 20 0Z" fill="#3B82F6"/>
  <path d="M20 10C14.4772 10 10 14.4772 10 20C10 25.5228 14.4772 30 20 30C25.5228 30 30 25.5228 30 20C30 14.4772 25.5228 10 20 10Z" fill="white"/>
  <path d="M20 15C17.2386 15 15 17.2386 15 20C15 22.7614 17.2386 25 20 25C22.7614 25 25 22.7614 25 20C25 17.2386 22.7614 15 20 15Z" fill="#3B82F6"/>
  <path d="M60 12H50V28H53V22H60V19H53V15H60V12Z" fill="currentColor"/>
  <path d="M80 12H70V28H80V25H73V21H79V18H73V15H80V12Z" fill="currentColor"/>
  <path d="M90 12V28H93V18H98V28H101V12H98V15H93V12H90Z" fill="currentColor"/>
  <path d="M120 12H110V15H117V28H120V12Z" fill="currentColor"/>
  <path d="M140 12H130V28H140V25H133V21H139V18H133V15H140V12Z" fill="currentColor"/>
  <path d="M160 12H150V15H157V28H160V12Z" fill="currentColor"/>
  <path d="M180 12H170V28H180V25H173V21H179V18H173V15H180V12Z" fill="currentColor"/>
</svg>
